<?xml version="1.0" encoding="UTF-8"?>
<svg id="Layer_1" data-name="Layer 1" xmlns="http://www.w3.org/2000/svg" viewBox="0 0 1289 293.97">
  <defs>
    <style>
      .cls-1 {
        fill: #000;
        stroke-width: 0px;
      }
    </style>
  </defs>
  <path class="cls-1" d="M549.35,239.06c-18.2,0-33.82-4.09-46.88-12.29-13.06-8.2-23.1-19.23-30.12-33.1-7.03-13.87-10.54-29.27-10.54-46.21s3.6-32.33,10.81-46.21c7.2-13.87,17.43-24.9,30.67-33.1,13.24-8.2,28.77-12.29,46.61-12.29,19.28,0,35.98,4.73,50.12,14.19,14.14,9.46,24.54,21.67,31.21,36.62h-22.16c-5.4-9.55-12.93-17.11-22.56-22.7-9.64-5.58-21.3-8.38-34.99-8.38-14.41,0-26.84,3.2-37.29,9.59-10.45,6.4-18.42,14.99-23.91,25.8-5.5,10.81-8.24,22.96-8.24,36.48s2.7,25.45,8.1,36.34c5.4,10.9,13.28,19.55,23.64,25.94,10.35,6.4,22.74,9.59,37.15,9.59,10.8,0,21.03-2.34,30.67-7.03,9.63-4.68,17.47-11.43,23.51-20.26,6.03-8.82,9.05-19.45,9.05-31.88h-65.39v-18.38h84.04v95.12h-18.65v-31.61c-3.78,5.76-8.65,11.21-14.6,16.34-5.95,5.13-13.11,9.32-21.48,12.57-8.38,3.25-17.97,4.87-28.77,4.87h0ZM659.59,236.91V101.8h20.27v33.23c.72-2.34,2.11-5.44,4.19-9.32,2.07-3.87,5.09-7.79,9.05-11.76,3.96-3.96,8.96-7.34,14.99-10.14,6.03-2.79,13.19-4.19,21.49-4.19h1.35v20.26h-2.43c-10.09,0-18.78,2.74-26.07,8.24-7.3,5.5-12.88,12.61-16.75,21.35-3.88,8.74-5.81,18.07-5.81,27.97v59.44h-20.27v.02ZM801.99,239.06c-13.15,0-24.64-3.11-34.45-9.32-9.82-6.21-17.43-14.64-22.84-25.27-5.4-10.63-8.1-22.33-8.1-35.13s2.7-24.72,8.1-35.26c5.4-10.54,13.01-18.91,22.84-25.13,9.82-6.21,21.3-9.32,34.45-9.32,11.17,0,20.76,2.16,28.77,6.48,8.02,4.32,14.54,10.18,19.59,17.56v-21.88h20.26v135.1h-20.26v-21.62c-5.05,7.21-11.57,12.97-19.59,17.3-8.01,4.32-17.61,6.48-28.77,6.48ZM804.69,220.69c10.09,0,18.59-2.34,25.54-7.03,6.93-4.68,12.2-10.94,15.81-18.78,3.6-7.83,5.4-16.34,5.4-25.54s-1.8-17.92-5.4-25.67c-3.61-7.75-8.87-13.95-15.81-18.65-6.93-4.68-15.45-7.03-25.54-7.03s-18.46,2.35-25.67,7.03c-7.21,4.68-12.7,10.9-16.48,18.65-3.78,7.75-5.67,16.31-5.67,25.67s1.89,17.7,5.67,25.54c3.78,7.83,9.28,14.1,16.48,18.78,7.2,4.68,15.76,7.03,25.67,7.03ZM937.82,236.91l-52.96-135.1h22.16l42.69,113.49,42.43-113.49h22.16l-52.69,135.1h-23.79ZM1027.71,79.1v-26.48h21.89v26.48h-21.89ZM1028.53,236.91V101.8h20.26v135.1h-20.26ZM1092.02,236.91v-117.27h-27.56v-17.83h27.56v-48.36h20.27v48.36h31.07v17.83h-31.07v117.27h-20.27ZM1187.13,290.4l24.59-55.39-55.12-133.21h22.43l43.5,110.78,44.31-110.78h22.16l-79.99,188.61h-21.88ZM404.82,31.01c-2.92-5.04-9.42-6.7-14.4-3.67L123.09,189.7c-6.81-12.73-10.67-27.27-10.67-42.71,0-50.14,40.69-90.78,90.89-90.78,21.55,0,41.34,7.51,56.92,20.03l-56.87,38.99L351.16,29.99c3.19-1.83,4.28-5.91,2.43-9.08-1.94-3.35-6.33-4.35-9.53-2.15l-36.19,24.81C281.19,16.67,244.21,0,203.3,0,122.03,0,56.15,65.81,56.15,146.98c0,26.14,6.84,50.68,18.81,71.94L0,264.45l76.96-42.08c25.7,42.88,72.66,71.6,126.35,71.6,81.28,0,147.16-65.81,147.16-146.99v-17.55c0-13.75,5.59-31.34,25.38-41.93,1.7-.91,2.31-3.03,1.35-4.7-.94-1.63-3.02-2.19-4.65-1.24l-175.49,101.2c19.59-8.32,34.56-13.38,54.41-17.36,41.35-8.3,42.4,11.39,26.43,33.6-10.69,14.87-34.85,38.75-74.58,38.75-32.4,0-60.83-16.93-76.93-42.42L400.81,45.3c5.12-2.79,6.93-9.25,4.01-14.29Z"/>
</svg>