<svg width="995" height="721" viewBox="0 0 995 721" fill="none" xmlns="http://www.w3.org/2000/svg">
<path d="M991.492 76.4388C984.347 64.0929 968.424 60.0271 956.233 67.4388L301.465 465.112C284.78 433.94 275.324 398.321 275.324 360.5C275.324 237.698 374.992 138.147 497.94 138.147C550.732 138.147 599.199 156.549 637.362 187.213L498.067 282.719L860.063 73.9612C867.865 69.4718 870.537 59.4977 866.021 51.7259C861.272 43.5094 850.522 41.0741 842.678 46.4529L754.034 107.229C688.712 41.3282 598.118 0.5 497.94 0.5C298.879 0.5 137.513 161.674 137.513 360.5C137.513 424.516 154.263 484.615 183.584 536.709L0 648.203L188.482 545.138C251.429 650.173 366.448 720.5 497.94 720.5C697.002 720.5 858.367 559.326 858.367 360.5C858.367 349.276 858.367 351.19 858.367 317.512C858.367 283.833 872.051 240.746 920.53 214.806C924.685 212.582 926.191 207.373 923.837 203.286C921.526 199.305 916.438 197.928 912.452 200.236L482.633 448.107C530.612 427.735 567.289 415.347 615.907 405.592C717.184 385.271 719.761 433.496 680.648 487.893C654.461 524.315 595.298 582.811 497.983 582.811C418.625 582.811 348.999 541.347 309.564 478.919L981.675 111.444C994.205 104.604 998.636 88.7847 991.492 76.4388Z" fill="black"/>
</svg>
